<?xml version="1.0" encoding="utf-8" ?>
<svg baseProfile="full" height="100%" version="1.1" viewBox="0 0 680 680" width="100%" xmlns="http://www.w3.org/2000/svg" xmlns:ev="http://www.w3.org/2001/xml-events" xmlns:xlink="http://www.w3.org/1999/xlink"><defs /><rect fill="rgb(177,255,10)" height="20.0" width="20.0" x="160.0" y="100.0" /><rect fill="rgb(135,171,110)" height="20.0" width="20.0" x="220.0" y="100.0" /><rect fill="rgb(46,230,79)" height="20.0" width="20.0" x="280.0" y="100.0" /><rect fill="rgb(240,160,125)" height="20.0" width="20.0" x="440.0" y="100.0" /><rect fill="rgb(139,194,106)" height="20.0" width="20.0" x="500.0" y="100.0" /><rect fill="rgb(68,114,115)" height="20.0" width="20.0" x="260.0" y="120.0" /><rect fill="rgb(169,83,142)" height="20.0" width="20.0" x="360.0" y="120.0" /><rect fill="rgb(198,24,142)" height="20.0" width="20.0" x="480.0" y="120.0" /><rect fill="rgb(92,111,23)" height="20.0" width="20.0" x="380.0" y="140.0" /><rect fill="rgb(21,195,193)" height="20.0" width="20.0" x="400.0" y="140.0" /><rect fill="rgb(254,154,189)" height="20.0" width="20.0" x="300.0" y="160.0" /><rect fill="rgb(243,98,67)" height="20.0" width="20.0" x="540.0" y="160.0" /><rect fill="rgb(158,156,239)" height="20.0" width="20.0" x="140.0" y="180.0" /><rect fill="rgb(123,169,191)" height="20.0" width="20.0" x="420.0" y="180.0" /><rect fill="rgb(177,83,222)" height="20.0" width="20.0" x="140.0" y="200.0" /><rect fill="rgb(2,175,182)" height="20.0" width="20.0" x="220.0" y="200.0" /><rect fill="rgb(31,106,241)" height="20.0" width="20.0" x="400.0" y="200.0" /><rect fill="rgb(150,27,106)" height="20.0" width="20.0" x="540.0" y="200.0" /><rect fill="rgb(30,74,128)" height="20.0" width="20.0" x="120.0" y="220.0" /><rect fill="rgb(241,158,66)" height="20.0" width="20.0" x="400.0" y="220.0" /><rect fill="rgb(29,109,34)" height="20.0" width="20.0" x="440.0" y="220.0" /><rect fill="rgb(100,231,59)" height="20.0" width="20.0" x="120.0" y="240.0" /><rect fill="rgb(39,6,254)" height="20.0" width="20.0" x="400.0" y="240.0" /><rect fill="rgb(51,107,165)" height="20.0" width="20.0" x="540.0" y="240.0" /><rect fill="rgb(82,64,117)" height="20.0" width="20.0" x="160.0" y="280.0" /><rect fill="rgb(153,58,17)" height="20.0" width="20.0" x="180.0" y="280.0" /><rect fill="rgb(84,204,153)" height="20.0" width="20.0" x="360.0" y="280.0" /><rect fill="rgb(72,196,201)" height="20.0" width="20.0" x="420.0" y="280.0" /><rect fill="rgb(156,11,137)" height="20.0" width="20.0" x="460.0" y="280.0" /><rect fill="rgb(149,151,114)" height="20.0" width="20.0" x="560.0" y="280.0" /><rect fill="rgb(185,180,31)" height="20.0" width="20.0" x="120.0" y="300.0" /><rect fill="rgb(119,91,108)" height="20.0" width="20.0" x="280.0" y="300.0" /><rect fill="rgb(39,228,139)" height="20.0" width="20.0" x="300.0" y="300.0" /><rect fill="rgb(52,207,255)" height="20.0" width="20.0" x="400.0" y="300.0" /><rect fill="rgb(2,182,162)" height="20.0" width="20.0" x="460.0" y="300.0" /><rect fill="rgb(114,56,201)" height="20.0" width="20.0" x="520.0" y="300.0" /><rect fill="rgb(134,34,119)" height="20.0" width="20.0" x="100.0" y="320.0" /><rect fill="rgb(199,211,15)" height="20.0" width="20.0" x="160.0" y="320.0" /><rect fill="rgb(10,89,197)" height="20.0" width="20.0" x="200.0" y="320.0" /><rect fill="rgb(148,48,223)" height="20.0" width="20.0" x="340.0" y="320.0" /><rect fill="rgb(250,207,228)" height="20.0" width="20.0" x="540.0" y="320.0" /><rect fill="rgb(142,235,94)" height="20.0" width="20.0" x="560.0" y="320.0" /><rect fill="rgb(64,168,113)" height="20.0" width="20.0" x="140.0" y="340.0" /><rect fill="rgb(212,110,118)" height="20.0" width="20.0" x="160.0" y="340.0" /><rect fill="rgb(243,22,68)" height="20.0" width="20.0" x="200.0" y="340.0" /><rect fill="rgb(106,212,254)" height="20.0" width="20.0" x="400.0" y="340.0" /><rect fill="rgb(63,39,125)" height="20.0" width="20.0" x="440.0" y="340.0" /><rect fill="rgb(250,251,112)" height="20.0" width="20.0" x="480.0" y="340.0" /><rect fill="rgb(39,147,139)" height="20.0" width="20.0" x="160.0" y="360.0" /><rect fill="rgb(166,193,79)" height="20.0" width="20.0" x="220.0" y="360.0" /><rect fill="rgb(134,84,243)" height="20.0" width="20.0" x="260.0" y="360.0" /><rect fill="rgb(41,184,198)" height="20.0" width="20.0" x="440.0" y="360.0" /><rect fill="rgb(107,100,155)" height="20.0" width="20.0" x="540.0" y="360.0" /><rect fill="rgb(252,80,249)" height="20.0" width="20.0" x="300.0" y="380.0" /><rect fill="rgb(176,48,194)" height="20.0" width="20.0" x="360.0" y="380.0" /><rect fill="rgb(60,39,166)" height="20.0" width="20.0" x="380.0" y="380.0" /><rect fill="rgb(93,204,1)" height="20.0" width="20.0" x="480.0" y="380.0" /><rect fill="rgb(35,158,54)" height="20.0" width="20.0" x="120.0" y="400.0" /><rect fill="rgb(96,0,224)" height="20.0" width="20.0" x="400.0" y="400.0" /><rect fill="rgb(221,103,95)" height="20.0" width="20.0" x="480.0" y="400.0" /><rect fill="rgb(76,75,48)" height="20.0" width="20.0" x="520.0" y="400.0" /><rect fill="rgb(137,253,142)" height="20.0" width="20.0" x="560.0" y="400.0" /><rect fill="rgb(120,141,236)" height="20.0" width="20.0" x="100.0" y="420.0" /><rect fill="rgb(63,199,168)" height="20.0" width="20.0" x="200.0" y="420.0" /><rect fill="rgb(183,90,8)" height="20.0" width="20.0" x="360.0" y="420.0" /><rect fill="rgb(244,2,21)" height="20.0" width="20.0" x="420.0" y="420.0" /><rect fill="rgb(15,105,105)" height="20.0" width="20.0" x="180.0" y="440.0" /><rect fill="rgb(35,103,65)" height="20.0" width="20.0" x="200.0" y="440.0" /><rect fill="rgb(100,68,25)" height="20.0" width="20.0" x="540.0" y="440.0" /><rect fill="rgb(31,143,126)" height="20.0" width="20.0" x="220.0" y="460.0" /><rect fill="rgb(152,184,104)" height="20.0" width="20.0" x="340.0" y="460.0" /><rect fill="rgb(45,168,29)" height="20.0" width="20.0" x="420.0" y="460.0" /><rect fill="rgb(235,253,182)" height="20.0" width="20.0" x="340.0" y="480.0" /><rect fill="rgb(124,221,51)" height="20.0" width="20.0" x="220.0" y="500.0" /><rect fill="rgb(44,126,194)" height="20.0" width="20.0" x="260.0" y="500.0" /><rect fill="rgb(209,239,57)" height="20.0" width="20.0" x="300.0" y="500.0" /><rect fill="rgb(163,10,43)" height="20.0" width="20.0" x="320.0" y="500.0" /><rect fill="rgb(196,188,1)" height="20.0" width="20.0" x="220.0" y="520.0" /><rect fill="rgb(141,127,152)" height="20.0" width="20.0" x="500.0" y="520.0" /><rect fill="rgb(125,148,171)" height="20.0" width="20.0" x="540.0" y="520.0" /><rect fill="rgb(219,112,37)" height="20.0" width="20.0" x="560.0" y="520.0" /><rect fill="rgb(213,87,252)" height="20.0" width="20.0" x="100.0" y="540.0" /><rect fill="rgb(114,9,221)" height="20.0" width="20.0" x="140.0" y="540.0" /><rect fill="rgb(93,224,64)" height="20.0" width="20.0" x="200.0" y="540.0" /><rect fill="rgb(225,188,182)" height="20.0" width="20.0" x="440.0" y="540.0" /><rect fill="rgb(62,216,228)" height="20.0" width="20.0" x="480.0" y="540.0" /><rect fill="rgb(152,77,88)" height="20.0" width="20.0" x="140.0" y="560.0" /><rect fill="rgb(137,133,117)" height="20.0" width="20.0" x="160.0" y="560.0" /><rect fill="rgb(29,113,136)" height="20.0" width="20.0" x="260.0" y="560.0" /><rect fill="rgb(35,82,78)" height="20.0" width="20.0" x="380.0" y="560.0" /><rect fill="rgb(245,10,204)" height="20.0" width="20.0" x="540.0" y="560.0" /><rect fill="rgb(141,151,101)" height="20.0" width="20.0" x="560.0" y="560.0" /></svg>