<?xml version="1.0" encoding="utf-8" ?>
<svg baseProfile="full" height="100%" version="1.1" viewBox="0 0 480 480" width="100%" xmlns="http://www.w3.org/2000/svg" xmlns:ev="http://www.w3.org/2001/xml-events" xmlns:xlink="http://www.w3.org/1999/xlink"><defs /><rect fill="rgb(77,215,6)" height="20.0" width="20.0" x="40.0" y="0.0" /><rect fill="rgb(119,54,243)" height="20.0" width="20.0" x="60.0" y="0.0" /><rect fill="rgb(197,183,12)" height="20.0" width="20.0" x="200.0" y="0.0" /><rect fill="rgb(94,238,25)" height="20.0" width="20.0" x="380.0" y="0.0" /><rect fill="rgb(234,226,129)" height="20.0" width="20.0" x="0.0" y="20.0" /><rect fill="rgb(130,25,253)" height="20.0" width="20.0" x="80.0" y="20.0" /><rect fill="rgb(148,239,195)" height="20.0" width="20.0" x="120.0" y="20.0" /><rect fill="rgb(248,214,133)" height="20.0" width="20.0" x="0.0" y="40.0" /><rect fill="rgb(72,43,157)" height="20.0" width="20.0" x="60.0" y="40.0" /><rect fill="rgb(128,42,90)" height="20.0" width="20.0" x="160.0" y="40.0" /><rect fill="rgb(59,7,131)" height="20.0" width="20.0" x="180.0" y="40.0" /><rect fill="rgb(255,253,215)" height="20.0" width="20.0" x="220.0" y="40.0" /><rect fill="rgb(184,68,84)" height="20.0" width="20.0" x="360.0" y="40.0" /><rect fill="rgb(40,202,135)" height="20.0" width="20.0" x="180.0" y="60.0" /><rect fill="rgb(133,67,94)" height="20.0" width="20.0" x="280.0" y="60.0" /><rect fill="rgb(51,179,95)" height="20.0" width="20.0" x="320.0" y="60.0" /><rect fill="rgb(150,7,168)" height="20.0" width="20.0" x="340.0" y="60.0" /><rect fill="rgb(67,154,74)" height="20.0" width="20.0" x="460.0" y="60.0" /><rect fill="rgb(110,254,141)" height="20.0" width="20.0" x="0.0" y="80.0" /><rect fill="rgb(121,13,162)" height="20.0" width="20.0" x="20.0" y="80.0" /><rect fill="rgb(206,237,202)" height="20.0" width="20.0" x="40.0" y="80.0" /><rect fill="rgb(84,151,85)" height="20.0" width="20.0" x="60.0" y="100.0" /><rect fill="rgb(140,48,31)" height="20.0" width="20.0" x="460.0" y="100.0" /><rect fill="rgb(141,224,58)" height="20.0" width="20.0" x="40.0" y="120.0" /><rect fill="rgb(72,34,234)" height="20.0" width="20.0" x="440.0" y="120.0" /><rect fill="rgb(214,192,252)" height="20.0" width="20.0" x="40.0" y="140.0" /><rect fill="rgb(69,247,54)" height="20.0" width="20.0" x="80.0" y="140.0" /><rect fill="rgb(48,244,58)" height="20.0" width="20.0" x="240.0" y="140.0" /><rect fill="rgb(193,197,198)" height="20.0" width="20.0" x="260.0" y="140.0" /><rect fill="rgb(96,96,53)" height="20.0" width="20.0" x="80.0" y="160.0" /><rect fill="rgb(117,146,72)" height="20.0" width="20.0" x="180.0" y="160.0" /><rect fill="rgb(154,123,102)" height="20.0" width="20.0" x="220.0" y="160.0" /><rect fill="rgb(81,58,146)" height="20.0" width="20.0" x="260.0" y="160.0" /><rect fill="rgb(51,125,102)" height="20.0" width="20.0" x="340.0" y="160.0" /><rect fill="rgb(64,231,139)" height="20.0" width="20.0" x="80.0" y="180.0" /><rect fill="rgb(165,233,71)" height="20.0" width="20.0" x="360.0" y="180.0" /><rect fill="rgb(58,181,114)" height="20.0" width="20.0" x="20.0" y="200.0" /><rect fill="rgb(102,100,220)" height="20.0" width="20.0" x="160.0" y="200.0" /><rect fill="rgb(197,199,217)" height="20.0" width="20.0" x="320.0" y="200.0" /><rect fill="rgb(29,95,32)" height="20.0" width="20.0" x="360.0" y="200.0" /><rect fill="rgb(110,55,166)" height="20.0" width="20.0" x="420.0" y="200.0" /><rect fill="rgb(193,128,12)" height="20.0" width="20.0" x="260.0" y="240.0" /><rect fill="rgb(27,196,34)" height="20.0" width="20.0" x="320.0" y="240.0" /><rect fill="rgb(194,133,233)" height="20.0" width="20.0" x="60.0" y="260.0" /><rect fill="rgb(79,80,199)" height="20.0" width="20.0" x="80.0" y="260.0" /><rect fill="rgb(15,101,190)" height="20.0" width="20.0" x="100.0" y="260.0" /><rect fill="rgb(175,183,37)" height="20.0" width="20.0" x="200.0" y="260.0" /><rect fill="rgb(152,65,136)" height="20.0" width="20.0" x="220.0" y="260.0" /><rect fill="rgb(188,83,148)" height="20.0" width="20.0" x="240.0" y="260.0" /><rect fill="rgb(154,104,162)" height="20.0" width="20.0" x="260.0" y="260.0" /><rect fill="rgb(91,245,174)" height="20.0" width="20.0" x="340.0" y="260.0" /><rect fill="rgb(239,191,191)" height="20.0" width="20.0" x="180.0" y="280.0" /><rect fill="rgb(24,208,99)" height="20.0" width="20.0" x="220.0" y="280.0" /><rect fill="rgb(72,118,110)" height="20.0" width="20.0" x="240.0" y="280.0" /><rect fill="rgb(39,52,254)" height="20.0" width="20.0" x="360.0" y="280.0" /><rect fill="rgb(87,80,78)" height="20.0" width="20.0" x="400.0" y="280.0" /><rect fill="rgb(200,193,200)" height="20.0" width="20.0" x="440.0" y="280.0" /><rect fill="rgb(128,47,155)" height="20.0" width="20.0" x="40.0" y="320.0" /><rect fill="rgb(145,65,219)" height="20.0" width="20.0" x="60.0" y="320.0" /><rect fill="rgb(180,28,183)" height="20.0" width="20.0" x="140.0" y="320.0" /><rect fill="rgb(3,238,222)" height="20.0" width="20.0" x="420.0" y="320.0" /><rect fill="rgb(102,44,23)" height="20.0" width="20.0" x="440.0" y="320.0" /><rect fill="rgb(12,145,196)" height="20.0" width="20.0" x="40.0" y="340.0" /><rect fill="rgb(235,127,70)" height="20.0" width="20.0" x="80.0" y="340.0" /><rect fill="rgb(40,178,249)" height="20.0" width="20.0" x="0.0" y="360.0" /><rect fill="rgb(12,60,101)" height="20.0" width="20.0" x="200.0" y="360.0" /><rect fill="rgb(83,39,245)" height="20.0" width="20.0" x="400.0" y="360.0" /><rect fill="rgb(223,3,156)" height="20.0" width="20.0" x="440.0" y="360.0" /><rect fill="rgb(25,186,112)" height="20.0" width="20.0" x="40.0" y="380.0" /><rect fill="rgb(128,93,70)" height="20.0" width="20.0" x="140.0" y="380.0" /><rect fill="rgb(161,30,66)" height="20.0" width="20.0" x="160.0" y="380.0" /><rect fill="rgb(229,116,204)" height="20.0" width="20.0" x="200.0" y="380.0" /><rect fill="rgb(51,52,25)" height="20.0" width="20.0" x="300.0" y="380.0" /><rect fill="rgb(236,45,165)" height="20.0" width="20.0" x="0.0" y="400.0" /><rect fill="rgb(232,17,10)" height="20.0" width="20.0" x="60.0" y="400.0" /><rect fill="rgb(188,139,125)" height="20.0" width="20.0" x="100.0" y="400.0" /><rect fill="rgb(7,215,91)" height="20.0" width="20.0" x="200.0" y="400.0" /><rect fill="rgb(0,178,100)" height="20.0" width="20.0" x="220.0" y="400.0" /><rect fill="rgb(98,68,37)" height="20.0" width="20.0" x="260.0" y="400.0" /><rect fill="rgb(43,158,114)" height="20.0" width="20.0" x="400.0" y="400.0" /><rect fill="rgb(191,34,218)" height="20.0" width="20.0" x="60.0" y="420.0" /><rect fill="rgb(51,175,4)" height="20.0" width="20.0" x="100.0" y="420.0" /><rect fill="rgb(17,63,174)" height="20.0" width="20.0" x="180.0" y="420.0" /><rect fill="rgb(62,49,34)" height="20.0" width="20.0" x="280.0" y="420.0" /><rect fill="rgb(223,161,208)" height="20.0" width="20.0" x="340.0" y="420.0" /><rect fill="rgb(40,79,154)" height="20.0" width="20.0" x="400.0" y="420.0" /><rect fill="rgb(163,129,192)" height="20.0" width="20.0" x="40.0" y="440.0" /><rect fill="rgb(217,133,68)" height="20.0" width="20.0" x="80.0" y="440.0" /><rect fill="rgb(112,46,169)" height="20.0" width="20.0" x="120.0" y="440.0" /><rect fill="rgb(2,213,182)" height="20.0" width="20.0" x="160.0" y="440.0" /><rect fill="rgb(180,144,88)" height="20.0" width="20.0" x="220.0" y="440.0" /><rect fill="rgb(56,14,157)" height="20.0" width="20.0" x="180.0" y="460.0" /><rect fill="rgb(216,186,125)" height="20.0" width="20.0" x="220.0" y="460.0" /></svg>