<?xml version="1.0" encoding="utf-8" ?>
<svg baseProfile="full" height="100%" version="1.1" width="100%" xmlns="http://www.w3.org/2000/svg" xmlns:ev="http://www.w3.org/2001/xml-events" xmlns:xlink="http://www.w3.org/1999/xlink"><defs /><rect fill="rgb(255,255,255)" height="96" stroke="none" width="96" x="0" y="0" /><rect fill="rgb(101,180,122)" height="4" stroke="none" width="4" x="0" y="0" /><rect fill="rgb(109,167,49)" height="4" stroke="none" width="4" x="4" y="0" /><rect fill="rgb(159,194,217)" height="4" stroke="none" width="4" x="12" y="0" /><rect fill="rgb(200,241,50)" height="4" stroke="none" width="4" x="16" y="0" /><rect fill="rgb(241,8,217)" height="4" stroke="none" width="4" x="36" y="0" /><rect fill="rgb(32,106,115)" height="4" stroke="none" width="4" x="44" y="0" /><rect fill="rgb(248,185,234)" height="4" stroke="none" width="4" x="48" y="0" /><rect fill="rgb(160,222,8)" height="4" stroke="none" width="4" x="56" y="0" /><rect fill="rgb(134,124,67)" height="4" stroke="none" width="4" x="76" y="0" /><rect fill="rgb(121,108,121)" height="4" stroke="none" width="4" x="84" y="0" /><rect fill="rgb(17,44,115)" height="4" stroke="none" width="4" x="0" y="4" /><rect fill="rgb(116,89,197)" height="4" stroke="none" width="4" x="4" y="4" /><rect fill="rgb(45,235,15)" height="4" stroke="none" width="4" x="12" y="4" /><rect fill="rgb(84,52,122)" height="4" stroke="none" width="4" x="32" y="4" /><rect fill="rgb(29,103,185)" height="4" stroke="none" width="4" x="40" y="4" /><rect fill="rgb(117,179,6)" height="4" stroke="none" width="4" x="44" y="4" /><rect fill="rgb(52,54,119)" height="4" stroke="none" width="4" x="84" y="4" /><rect fill="rgb(112,226,10)" height="4" stroke="none" width="4" x="16" y="8" /><rect fill="rgb(40,170,163)" height="4" stroke="none" width="4" x="20" y="8" /><rect fill="rgb(187,196,141)" height="4" stroke="none" width="4" x="24" y="8" /><rect fill="rgb(105,60,19)" height="4" stroke="none" width="4" x="28" y="8" /><rect fill="rgb(88,206,80)" height="4" stroke="none" width="4" x="36" y="8" /><rect fill="rgb(90,38,99)" height="4" stroke="none" width="4" x="48" y="8" /><rect fill="rgb(11,20,90)" height="4" stroke="none" width="4" x="60" y="8" /><rect fill="rgb(199,143,45)" height="4" stroke="none" width="4" x="68" y="8" /><rect fill="rgb(115,106,12)" height="4" stroke="none" width="4" x="72" y="8" /><rect fill="rgb(173,71,55)" height="4" stroke="none" width="4" x="84" y="8" /><rect fill="rgb(31,36,36)" height="4" stroke="none" width="4" x="88" y="8" /><rect fill="rgb(161,88,128)" height="4" stroke="none" width="4" x="0" y="12" /><rect fill="rgb(193,104,147)" height="4" stroke="none" width="4" x="20" y="12" /><rect fill="rgb(28,88,182)" height="4" stroke="none" width="4" x="24" y="12" /><rect fill="rgb(70,197,42)" height="4" stroke="none" width="4" x="32" y="12" /><rect fill="rgb(13,75,118)" height="4" stroke="none" width="4" x="40" y="12" /><rect fill="rgb(105,22,117)" height="4" stroke="none" width="4" x="48" y="12" /><rect fill="rgb(63,41,60)" height="4" stroke="none" width="4" x="56" y="12" /><rect fill="rgb(217,225,94)" height="4" stroke="none" width="4" x="64" y="12" /><rect fill="rgb(189,105,50)" height="4" stroke="none" width="4" x="72" y="12" /><rect fill="rgb(201,218,206)" height="4" stroke="none" width="4" x="76" y="12" /><rect fill="rgb(137,53,147)" height="4" stroke="none" width="4" x="92" y="12" /><rect fill="rgb(24,163,67)" height="4" stroke="none" width="4" x="0" y="16" /><rect fill="rgb(247,40,111)" height="4" stroke="none" width="4" x="4" y="16" /><rect fill="rgb(128,73,34)" height="4" stroke="none" width="4" x="12" y="16" /><rect fill="rgb(3,115,221)" height="4" stroke="none" width="4" x="16" y="16" /><rect fill="rgb(202,44,144)" height="4" stroke="none" width="4" x="32" y="16" /><rect fill="rgb(119,143,242)" height="4" stroke="none" width="4" x="40" y="16" /><rect fill="rgb(145,127,138)" height="4" stroke="none" width="4" x="56" y="16" /><rect fill="rgb(232,231,125)" height="4" stroke="none" width="4" x="72" y="16" /><rect fill="rgb(143,57,102)" height="4" stroke="none" width="4" x="76" y="16" /><rect fill="rgb(165,59,116)" height="4" stroke="none" width="4" x="80" y="16" /><rect fill="rgb(236,237,6)" height="4" stroke="none" width="4" x="88" y="16" /><rect fill="rgb(58,246,240)" height="4" stroke="none" width="4" x="0" y="20" /><rect fill="rgb(128,26,77)" height="4" stroke="none" width="4" x="4" y="20" /><rect fill="rgb(139,155,89)" height="4" stroke="none" width="4" x="24" y="20" /><rect fill="rgb(38,221,191)" height="4" stroke="none" width="4" x="28" y="20" /><rect fill="rgb(73,59,124)" height="4" stroke="none" width="4" x="32" y="20" /><rect fill="rgb(77,43,3)" height="4" stroke="none" width="4" x="44" y="20" /><rect fill="rgb(145,48,100)" height="4" stroke="none" width="4" x="52" y="20" /><rect fill="rgb(101,132,136)" height="4" stroke="none" width="4" x="64" y="20" /><rect fill="rgb(46,33,172)" height="4" stroke="none" width="4" x="68" y="20" /><rect fill="rgb(123,16,177)" height="4" stroke="none" width="4" x="76" y="20" /><rect fill="rgb(198,208,128)" height="4" stroke="none" width="4" x="84" y="20" /><rect fill="rgb(167,115,87)" height="4" stroke="none" width="4" x="88" y="20" /><rect fill="rgb(169,91,90)" height="4" stroke="none" width="4" x="0" y="24" /><rect fill="rgb(79,189,108)" height="4" stroke="none" width="4" x="4" y="24" /><rect fill="rgb(71,107,55)" height="4" stroke="none" width="4" x="32" y="24" /><rect fill="rgb(224,232,34)" height="4" stroke="none" width="4" x="36" y="24" /><rect fill="rgb(6,56,137)" height="4" stroke="none" width="4" x="40" y="24" /><rect fill="rgb(33,216,244)" height="4" stroke="none" width="4" x="52" y="24" /><rect fill="rgb(168,216,101)" height="4" stroke="none" width="4" x="60" y="24" /><rect fill="rgb(195,145,124)" height="4" stroke="none" width="4" x="64" y="24" /><rect fill="rgb(83,72,202)" height="4" stroke="none" width="4" x="72" y="24" /><rect fill="rgb(107,219,74)" height="4" stroke="none" width="4" x="84" y="24" /><rect fill="rgb(44,164,231)" height="4" stroke="none" width="4" x="88" y="24" /><rect fill="rgb(180,130,194)" height="4" stroke="none" width="4" x="92" y="24" /><rect fill="rgb(201,235,222)" height="4" stroke="none" width="4" x="0" y="28" /><rect fill="rgb(46,79,164)" height="4" stroke="none" width="4" x="12" y="28" /><rect fill="rgb(195,125,73)" height="4" stroke="none" width="4" x="28" y="28" /><rect fill="rgb(254,105,47)" height="4" stroke="none" width="4" x="32" y="28" /><rect fill="rgb(193,10,243)" height="4" stroke="none" width="4" x="36" y="28" /><rect fill="rgb(159,253,185)" height="4" stroke="none" width="4" x="44" y="28" /><rect fill="rgb(197,116,121)" height="4" stroke="none" width="4" x="48" y="28" /><rect fill="rgb(176,95,9)" height="4" stroke="none" width="4" x="52" y="28" /><rect fill="rgb(222,165,126)" height="4" stroke="none" width="4" x="56" y="28" /><rect fill="rgb(36,223,83)" height="4" stroke="none" width="4" x="64" y="28" /><rect fill="rgb(80,168,255)" height="4" stroke="none" width="4" x="76" y="28" /><rect fill="rgb(51,66,237)" height="4" stroke="none" width="4" x="84" y="28" /><rect fill="rgb(72,139,156)" height="4" stroke="none" width="4" x="92" y="28" /><rect fill="rgb(118,56,76)" height="4" stroke="none" width="4" x="0" y="32" /><rect fill="rgb(246,193,98)" height="4" stroke="none" width="4" x="20" y="32" /><rect fill="rgb(164,184,81)" height="4" stroke="none" width="4" x="32" y="32" /><rect fill="rgb(90,135,42)" height="4" stroke="none" width="4" x="40" y="32" /><rect fill="rgb(36,19,229)" height="4" stroke="none" width="4" x="52" y="32" /><rect fill="rgb(61,26,189)" height="4" stroke="none" width="4" x="56" y="32" /><rect fill="rgb(120,245,191)" height="4" stroke="none" width="4" x="60" y="32" /><rect fill="rgb(85,47,171)" height="4" stroke="none" width="4" x="72" y="32" /><rect fill="rgb(12,88,179)" height="4" stroke="none" width="4" x="76" y="32" /><rect fill="rgb(110,141,13)" height="4" stroke="none" width="4" x="80" y="32" /><rect fill="rgb(138,209,68)" height="4" stroke="none" width="4" x="88" y="32" /><rect fill="rgb(121,222,97)" height="4" stroke="none" width="4" x="92" y="32" /><rect fill="rgb(161,141,10)" height="4" stroke="none" width="4" x="4" y="36" /><rect fill="rgb(213,198,81)" height="4" stroke="none" width="4" x="12" y="36" /><rect fill="rgb(191,113,216)" height="4" stroke="none" width="4" x="20" y="36" /><rect fill="rgb(45,180,178)" height="4" stroke="none" width="4" x="32" y="36" /><rect fill="rgb(230,140,4)" height="4" stroke="none" width="4" x="36" y="36" /><rect fill="rgb(218,238,212)" height="4" stroke="none" width="4" x="48" y="36" /><rect fill="rgb(227,15,53)" height="4" stroke="none" width="4" x="56" y="36" /><rect fill="rgb(51,140,155)" height="4" stroke="none" width="4" x="60" y="36" /><rect fill="rgb(160,17,151)" height="4" stroke="none" width="4" x="64" y="36" /><rect fill="rgb(205,184,226)" height="4" stroke="none" width="4" x="68" y="36" /><rect fill="rgb(26,87,153)" height="4" stroke="none" width="4" x="80" y="36" /><rect fill="rgb(233,87,86)" height="4" stroke="none" width="4" x="92" y="36" /><rect fill="rgb(222,139,182)" height="4" stroke="none" width="4" x="8" y="40" /><rect fill="rgb(191,133,9)" height="4" stroke="none" width="4" x="16" y="40" /><rect fill="rgb(245,12,99)" height="4" stroke="none" width="4" x="24" y="40" /><rect fill="rgb(78,215,221)" height="4" stroke="none" width="4" x="28" y="40" /><rect fill="rgb(119,223,199)" height="4" stroke="none" width="4" x="36" y="40" /><rect fill="rgb(224,227,223)" height="4" stroke="none" width="4" x="40" y="40" /><rect fill="rgb(245,32,128)" height="4" stroke="none" width="4" x="44" y="40" /><rect fill="rgb(143,34,23)" height="4" stroke="none" width="4" x="52" y="40" /><rect fill="rgb(10,23,189)" height="4" stroke="none" width="4" x="56" y="40" /><rect fill="rgb(236,137,64)" height="4" stroke="none" width="4" x="60" y="40" /><rect fill="rgb(135,225,235)" height="4" stroke="none" width="4" x="68" y="40" /><rect fill="rgb(173,48,168)" height="4" stroke="none" width="4" x="72" y="40" /><rect fill="rgb(163,33,156)" height="4" stroke="none" width="4" x="80" y="40" /><rect fill="rgb(27,246,29)" height="4" stroke="none" width="4" x="20" y="44" /><rect fill="rgb(80,6,155)" height="4" stroke="none" width="4" x="24" y="44" /><rect fill="rgb(62,23,124)" height="4" stroke="none" width="4" x="28" y="44" /><rect fill="rgb(89,109,108)" height="4" stroke="none" width="4" x="32" y="44" /><rect fill="rgb(127,152,206)" height="4" stroke="none" width="4" x="44" y="44" /><rect fill="rgb(106,249,99)" height="4" stroke="none" width="4" x="76" y="44" /><rect fill="rgb(13,244,17)" height="4" stroke="none" width="4" x="80" y="44" /><rect fill="rgb(178,115,121)" height="4" stroke="none" width="4" x="84" y="44" /><rect fill="rgb(25,19,230)" height="4" stroke="none" width="4" x="92" y="44" /><rect fill="rgb(91,244,79)" height="4" stroke="none" width="4" x="0" y="48" /><rect fill="rgb(229,2,223)" height="4" stroke="none" width="4" x="4" y="48" /><rect fill="rgb(249,212,229)" height="4" stroke="none" width="4" x="12" y="48" /><rect fill="rgb(42,174,136)" height="4" stroke="none" width="4" x="36" y="48" /><rect fill="rgb(220,237,195)" height="4" stroke="none" width="4" x="52" y="48" /><rect fill="rgb(10,252,111)" height="4" stroke="none" width="4" x="56" y="48" /><rect fill="rgb(241,66,227)" height="4" stroke="none" width="4" x="60" y="48" /><rect fill="rgb(178,117,24)" height="4" stroke="none" width="4" x="64" y="48" /><rect fill="rgb(232,203,86)" height="4" stroke="none" width="4" x="68" y="48" /><rect fill="rgb(212,210,157)" height="4" stroke="none" width="4" x="76" y="48" /><rect fill="rgb(66,120,104)" height="4" stroke="none" width="4" x="84" y="48" /><rect fill="rgb(111,20,22)" height="4" stroke="none" width="4" x="88" y="48" /><rect fill="rgb(103,35,41)" height="4" stroke="none" width="4" x="4" y="52" /><rect fill="rgb(145,153,36)" height="4" stroke="none" width="4" x="20" y="52" /><rect fill="rgb(140,194,14)" height="4" stroke="none" width="4" x="28" y="52" /><rect fill="rgb(93,248,183)" height="4" stroke="none" width="4" x="32" y="52" /><rect fill="rgb(72,222,214)" height="4" stroke="none" width="4" x="36" y="52" /><rect fill="rgb(175,193,159)" height="4" stroke="none" width="4" x="44" y="52" /><rect fill="rgb(4,125,53)" height="4" stroke="none" width="4" x="48" y="52" /><rect fill="rgb(163,244,166)" height="4" stroke="none" width="4" x="52" y="52" /><rect fill="rgb(129,195,118)" height="4" stroke="none" width="4" x="60" y="52" /><rect fill="rgb(138,23,242)" height="4" stroke="none" width="4" x="64" y="52" /><rect fill="rgb(49,254,37)" height="4" stroke="none" width="4" x="68" y="52" /><rect fill="rgb(51,94,241)" height="4" stroke="none" width="4" x="72" y="52" /><rect fill="rgb(77,6,160)" height="4" stroke="none" width="4" x="88" y="52" /><rect fill="rgb(246,198,251)" height="4" stroke="none" width="4" x="4" y="56" /><rect fill="rgb(109,5,129)" height="4" stroke="none" width="4" x="8" y="56" /><rect fill="rgb(242,213,154)" height="4" stroke="none" width="4" x="12" y="56" /><rect fill="rgb(60,64,169)" height="4" stroke="none" width="4" x="16" y="56" /><rect fill="rgb(241,177,51)" height="4" stroke="none" width="4" x="20" y="56" /><rect fill="rgb(170,234,52)" height="4" stroke="none" width="4" x="36" y="56" /><rect fill="rgb(80,43,245)" height="4" stroke="none" width="4" x="44" y="56" /><rect fill="rgb(202,142,186)" height="4" stroke="none" width="4" x="48" y="56" /><rect fill="rgb(74,99,47)" height="4" stroke="none" width="4" x="52" y="56" /><rect fill="rgb(204,154,158)" height="4" stroke="none" width="4" x="60" y="56" /><rect fill="rgb(155,233,228)" height="4" stroke="none" width="4" x="64" y="56" /><rect fill="rgb(154,73,202)" height="4" stroke="none" width="4" x="72" y="56" /><rect fill="rgb(2,117,172)" height="4" stroke="none" width="4" x="76" y="56" /><rect fill="rgb(129,54,49)" height="4" stroke="none" width="4" x="80" y="56" /><rect fill="rgb(10,230,191)" height="4" stroke="none" width="4" x="84" y="56" /><rect fill="rgb(177,109,0)" height="4" stroke="none" width="4" x="88" y="56" /><rect fill="rgb(99,185,187)" height="4" stroke="none" width="4" x="4" y="60" /><rect fill="rgb(137,173,18)" height="4" stroke="none" width="4" x="8" y="60" /><rect fill="rgb(61,189,172)" height="4" stroke="none" width="4" x="24" y="60" /><rect fill="rgb(185,251,41)" height="4" stroke="none" width="4" x="36" y="60" /><rect fill="rgb(101,153,117)" height="4" stroke="none" width="4" x="44" y="60" /><rect fill="rgb(184,136,177)" height="4" stroke="none" width="4" x="48" y="60" /><rect fill="rgb(255,12,17)" height="4" stroke="none" width="4" x="56" y="60" /><rect fill="rgb(97,221,213)" height="4" stroke="none" width="4" x="64" y="60" /><rect fill="rgb(211,158,165)" height="4" stroke="none" width="4" x="72" y="60" /><rect fill="rgb(2,248,187)" height="4" stroke="none" width="4" x="76" y="60" /><rect fill="rgb(54,255,244)" height="4" stroke="none" width="4" x="4" y="64" /><rect fill="rgb(147,139,115)" height="4" stroke="none" width="4" x="8" y="64" /><rect fill="rgb(233,89,212)" height="4" stroke="none" width="4" x="28" y="64" /><rect fill="rgb(25,53,73)" height="4" stroke="none" width="4" x="40" y="64" /><rect fill="rgb(34,11,240)" height="4" stroke="none" width="4" x="44" y="64" /><rect fill="rgb(200,1,13)" height="4" stroke="none" width="4" x="48" y="64" /><rect fill="rgb(59,24,121)" height="4" stroke="none" width="4" x="52" y="64" /><rect fill="rgb(27,238,247)" height="4" stroke="none" width="4" x="60" y="64" /><rect fill="rgb(131,9,189)" height="4" stroke="none" width="4" x="64" y="64" /><rect fill="rgb(130,13,106)" height="4" stroke="none" width="4" x="68" y="64" /><rect fill="rgb(196,100,94)" height="4" stroke="none" width="4" x="72" y="64" /><rect fill="rgb(235,221,235)" height="4" stroke="none" width="4" x="80" y="64" /><rect fill="rgb(244,86,19)" height="4" stroke="none" width="4" x="84" y="64" /><rect fill="rgb(153,224,65)" height="4" stroke="none" width="4" x="0" y="68" /><rect fill="rgb(177,96,201)" height="4" stroke="none" width="4" x="4" y="68" /><rect fill="rgb(13,234,149)" height="4" stroke="none" width="4" x="12" y="68" /><rect fill="rgb(241,81,48)" height="4" stroke="none" width="4" x="20" y="68" /><rect fill="rgb(77,126,109)" height="4" stroke="none" width="4" x="24" y="68" /><rect fill="rgb(202,57,220)" height="4" stroke="none" width="4" x="28" y="68" /><rect fill="rgb(159,213,214)" height="4" stroke="none" width="4" x="48" y="68" /><rect fill="rgb(7,195,205)" height="4" stroke="none" width="4" x="64" y="68" /><rect fill="rgb(169,135,191)" height="4" stroke="none" width="4" x="68" y="68" /><rect fill="rgb(36,80,40)" height="4" stroke="none" width="4" x="72" y="68" /><rect fill="rgb(225,109,87)" height="4" stroke="none" width="4" x="76" y="68" /><rect fill="rgb(159,109,222)" height="4" stroke="none" width="4" x="84" y="68" /><rect fill="rgb(194,61,35)" height="4" stroke="none" width="4" x="92" y="68" /><rect fill="rgb(69,205,173)" height="4" stroke="none" width="4" x="0" y="72" /><rect fill="rgb(184,14,201)" height="4" stroke="none" width="4" x="4" y="72" /><rect fill="rgb(31,92,3)" height="4" stroke="none" width="4" x="8" y="72" /><rect fill="rgb(231,96,95)" height="4" stroke="none" width="4" x="16" y="72" /><rect fill="rgb(34,190,159)" height="4" stroke="none" width="4" x="20" y="72" /><rect fill="rgb(131,214,187)" height="4" stroke="none" width="4" x="28" y="72" /><rect fill="rgb(112,190,43)" height="4" stroke="none" width="4" x="36" y="72" /><rect fill="rgb(227,109,249)" height="4" stroke="none" width="4" x="48" y="72" /><rect fill="rgb(50,122,97)" height="4" stroke="none" width="4" x="52" y="72" /><rect fill="rgb(214,159,241)" height="4" stroke="none" width="4" x="60" y="72" /><rect fill="rgb(100,91,93)" height="4" stroke="none" width="4" x="64" y="72" /><rect fill="rgb(74,12,94)" height="4" stroke="none" width="4" x="68" y="72" /><rect fill="rgb(34,43,231)" height="4" stroke="none" width="4" x="76" y="72" /><rect fill="rgb(227,167,58)" height="4" stroke="none" width="4" x="0" y="76" /><rect fill="rgb(77,100,217)" height="4" stroke="none" width="4" x="4" y="76" /><rect fill="rgb(191,86,46)" height="4" stroke="none" width="4" x="8" y="76" /><rect fill="rgb(64,62,181)" height="4" stroke="none" width="4" x="12" y="76" /><rect fill="rgb(223,105,205)" height="4" stroke="none" width="4" x="24" y="76" /><rect fill="rgb(199,105,15)" height="4" stroke="none" width="4" x="28" y="76" /><rect fill="rgb(72,104,124)" height="4" stroke="none" width="4" x="40" y="76" /><rect fill="rgb(105,176,32)" height="4" stroke="none" width="4" x="48" y="76" /><rect fill="rgb(192,85,4)" height="4" stroke="none" width="4" x="52" y="76" /><rect fill="rgb(161,223,125)" height="4" stroke="none" width="4" x="56" y="76" /><rect fill="rgb(138,62,169)" height="4" stroke="none" width="4" x="60" y="76" /><rect fill="rgb(201,47,37)" height="4" stroke="none" width="4" x="64" y="76" /><rect fill="rgb(124,7,182)" height="4" stroke="none" width="4" x="68" y="76" /><rect fill="rgb(248,120,236)" height="4" stroke="none" width="4" x="72" y="76" /><rect fill="rgb(196,127,233)" height="4" stroke="none" width="4" x="76" y="76" /><rect fill="rgb(148,200,28)" height="4" stroke="none" width="4" x="80" y="76" /><rect fill="rgb(162,60,141)" height="4" stroke="none" width="4" x="88" y="76" /><rect fill="rgb(136,202,238)" height="4" stroke="none" width="4" x="92" y="76" /><rect fill="rgb(101,15,50)" height="4" stroke="none" width="4" x="0" y="80" /><rect fill="rgb(28,245,108)" height="4" stroke="none" width="4" x="8" y="80" /><rect fill="rgb(228,154,120)" height="4" stroke="none" width="4" x="16" y="80" /><rect fill="rgb(60,82,45)" height="4" stroke="none" width="4" x="24" y="80" /><rect fill="rgb(31,10,218)" height="4" stroke="none" width="4" x="28" y="80" /><rect fill="rgb(112,0,127)" height="4" stroke="none" width="4" x="44" y="80" /><rect fill="rgb(141,128,163)" height="4" stroke="none" width="4" x="52" y="80" /><rect fill="rgb(88,164,139)" height="4" stroke="none" width="4" x="56" y="80" /><rect fill="rgb(86,210,73)" height="4" stroke="none" width="4" x="76" y="80" /><rect fill="rgb(59,79,84)" height="4" stroke="none" width="4" x="88" y="80" /><rect fill="rgb(148,246,113)" height="4" stroke="none" width="4" x="92" y="80" /><rect fill="rgb(170,155,154)" height="4" stroke="none" width="4" x="12" y="84" /><rect fill="rgb(138,160,73)" height="4" stroke="none" width="4" x="16" y="84" /><rect fill="rgb(203,204,92)" height="4" stroke="none" width="4" x="20" y="84" /><rect fill="rgb(104,192,44)" height="4" stroke="none" width="4" x="24" y="84" /><rect fill="rgb(19,115,189)" height="4" stroke="none" width="4" x="28" y="84" /><rect fill="rgb(138,189,202)" height="4" stroke="none" width="4" x="36" y="84" /><rect fill="rgb(198,170,129)" height="4" stroke="none" width="4" x="40" y="84" /><rect fill="rgb(138,247,225)" height="4" stroke="none" width="4" x="48" y="84" /><rect fill="rgb(220,82,19)" height="4" stroke="none" width="4" x="56" y="84" /><rect fill="rgb(94,83,240)" height="4" stroke="none" width="4" x="64" y="84" /><rect fill="rgb(28,229,15)" height="4" stroke="none" width="4" x="68" y="84" /><rect fill="rgb(5,8,32)" height="4" stroke="none" width="4" x="80" y="84" /><rect fill="rgb(55,162,246)" height="4" stroke="none" width="4" x="0" y="88" /><rect fill="rgb(109,217,180)" height="4" stroke="none" width="4" x="4" y="88" /><rect fill="rgb(198,24,12)" height="4" stroke="none" width="4" x="16" y="88" /><rect fill="rgb(254,45,225)" height="4" stroke="none" width="4" x="24" y="88" /><rect fill="rgb(4,107,46)" height="4" stroke="none" width="4" x="32" y="88" /><rect fill="rgb(42,18,106)" height="4" stroke="none" width="4" x="36" y="88" /><rect fill="rgb(223,3,200)" height="4" stroke="none" width="4" x="40" y="88" /><rect fill="rgb(166,188,106)" height="4" stroke="none" width="4" x="48" y="88" /><rect fill="rgb(216,74,203)" height="4" stroke="none" width="4" x="64" y="88" /><rect fill="rgb(87,178,181)" height="4" stroke="none" width="4" x="76" y="88" /><rect fill="rgb(152,62,73)" height="4" stroke="none" width="4" x="84" y="88" /><rect fill="rgb(221,47,199)" height="4" stroke="none" width="4" x="88" y="88" /><rect fill="rgb(115,34,95)" height="4" stroke="none" width="4" x="20" y="92" /><rect fill="rgb(1,83,73)" height="4" stroke="none" width="4" x="24" y="92" /><rect fill="rgb(102,52,63)" height="4" stroke="none" width="4" x="28" y="92" /><rect fill="rgb(79,140,91)" height="4" stroke="none" width="4" x="32" y="92" /><rect fill="rgb(89,8,98)" height="4" stroke="none" width="4" x="40" y="92" /><rect fill="rgb(239,207,138)" height="4" stroke="none" width="4" x="48" y="92" /><rect fill="rgb(234,235,208)" height="4" stroke="none" width="4" x="56" y="92" /><rect fill="rgb(240,51,237)" height="4" stroke="none" width="4" x="60" y="92" /><rect fill="rgb(139,132,181)" height="4" stroke="none" width="4" x="72" y="92" /><rect fill="rgb(38,11,197)" height="4" stroke="none" width="4" x="92" y="92" /></svg>